# xmcd
#
# Track frame offsets:
#	150
#	16622
#	33479
#	46571
#	61562
#	77472
#	90122
#	106143
#	122506
#	141508
#	159145
#	172085
#	189483
#	205521
#	223618
#	237616
#	248895
#	266569
#	281226
#	294753
#
# Disc length: 4138 seconds
#
# Revision: 1
# Processed by: cddbd v1.4PL0 Copyright (c) Steve Scherf et al.
# Submitted via: audiograbber 1.80
#
DISCID=00102814
DTITLE=Various Artist - Hott Country 009
DYEAR=1900
DGENRE=
TTITLE0=Tracy Byrd - Big Love
TTITLE1=Brooks and Dunn - Mama Don't Get Dressed Up For Nothin'
TTITLE2=Clay Walker - Bury The Shovel
TTITLE3=Suzy Bogguss - No Way Out
TTITLE4=Prairie Oyster - Unbelieveable Love
TTITLE5=John Michael Montgomery - Ain't Got Nothin' On Us
TTITLE6=Clint Black - Like The Rain
TTITLE7=Duane Steele - The Trouble With Love
TTITLE8=George Strait - I Can Still Make Cheyenne
TTITLE9=Pam Tillis - Betty 's Got A Bass Boat
TTITLE10=Mary Chapin Carpenter - Let Me Into Your Heart
TTITLE11=Rhett Akins - Loce You Back
TTITLE12=Lonestar - When Cowboy's Don't Dance
TTITLE13=Charlie Major - Waitin' On You
TTITLE14=Wade Hayes - Where Do I Go To Start All Over
TTITLE15=BR5-49 - Cherokee Boogie
TTITLE16=Brady Seals - Another You, Another Me
TTITLE17=Neal McCoy - Going, Going, Gone
TTITLE18=Trace Adkins - Every Light In The House Is On
TTITLE19=Kevin Sharp - Nobody Knows
EXTD=
EXTT0=
EXTT1=
EXTT2=
EXTT3=
EXTT4=
EXTT5=
EXTT6=
EXTT7=
EXTT8=
EXTT9=
EXTT10=
EXTT11=
EXTT12=
EXTT13=
EXTT14=
EXTT15=
EXTT16=
EXTT17=
EXTT18=
EXTT19=
PLAYORDER=
